<svg class="icon" viewBox="0 0 1024 1024" xmlns="http://www.w3.org/2000/svg" width="200" height="200"><defs><style/></defs><path d="M960 134.4C960 64 902.4 0 832 0H192C121.6 0 64 64 64 134.4v748.8C64 960 121.6 1024 192 1024h640c70.4 0 128-64 128-134.4V134.4zm-64 755.2c0 38.4-25.6 70.4-64 70.4H192c-38.4 0-64-32-64-70.4V134.4C128 96 153.6 64 192 64h640c38.4 0 64 32 64 70.4v755.2z"/><path d="M192 134.4h640v70.4H192v-70.4zm0 377.6h640v70.4H192V512zm0 102.4h640v70.4H192v-70.4zm0 102.4h640v70.4H192v-70.4zm0 102.4h640v70.4H192v-70.4zm256-544h384v70.4H448v-70.4zm0 102.4h384V448H448v-70.4zM192 275.2h192V480H192V275.2z"/></svg>